<svg id="Layer_1" data-name="Layer 1" xmlns="http://www.w3.org/2000/svg" xmlns:xlink="http://www.w3.org/1999/xlink" viewBox="0 0 558.9 284.51"><defs><style>.cls-1{fill:url(#linear-gradient);}.cls-2{fill:#f47721;}.cls-3{fill:url(#linear-gradient-2);}</style><linearGradient id="linear-gradient" x1="21.49" y1="177.97" x2="312.06" y2="177.97" gradientUnits="userSpaceOnUse"><stop offset="0" stop-color="#ef4723"/><stop offset="1" stop-color="#f47721"/></linearGradient><linearGradient id="linear-gradient-2" x1="144.76" y1="82.33" x2="159.02" y2="82.33" xlink:href="#linear-gradient"/></defs><path class="cls-1" d="M127.91,266c14.4-26.57,57.63-44.58,62.58-96.36,0,0,4-20.71-18.91-21.61s-63.94,0-63.94,0-7.65,0,0-7.2a191.29,191.29,0,0,1,22.07-13.06s-.9-8.11,8.1-11.26c0,0-1.8-26.11,37.82-33.32V58.88s26.57-1.35,52.23,16.21l-4.5,3.15,4.5,3.6L206.7,93.1s12.61,13.06,18.46,57.18,8.11,65.74,23.41,82.85,23.42,24.76,25.67,41a27.69,27.69,0,0,0,.82,3.73,145.27,145.27,0,1,0-149.82,42.39C121.81,304.7,119.22,282,127.91,266Z" transform="translate(-21.49 -35.72)"/><path class="cls-2" d="M396.65,231.82l6.89-41.25H415c4.07,0,7.24.66,9.53,2a15.21,15.21,0,0,1,5.68,6.09,20.62,20.62,0,0,1,2.25,10,25.62,25.62,0,0,1-3.29,13.4q-3.3,5.49-7.15,7.62a20.92,20.92,0,0,1-10.14,2.13Zm5.73-4.2,8.29.06a20.7,20.7,0,0,0,6.95-.94,12.57,12.57,0,0,0,4.7-3.11,17.29,17.29,0,0,0,3.62-6.3,26.8,26.8,0,0,0,1.48-9.05,18.19,18.19,0,0,0-1.5-7.69,9.65,9.65,0,0,0-4.26-4.7,15.76,15.76,0,0,0-7.33-1.45l-6.45.06Z" transform="translate(-21.49 -35.72)"/><path class="cls-2" d="M458,231.82h-4.8c0-.63,0-1.14,0-1.54a17.68,17.68,0,0,1,.54-4.45q-4.62,6.84-11.48,6.83a9.75,9.75,0,0,1-7-2.62,8.74,8.74,0,0,1-2.73-6.58,9.39,9.39,0,0,1,3.93-7.57q3.93-3.13,14.65-3.14,1,0,4.62.18a19.27,19.27,0,0,0,.34-3.2q0-5.8-7-5.8-6.19,0-8.86,5.16l-4.47-1.9q3.63-6.94,13-6.95a15.65,15.65,0,0,1,8.7,2.28,7.27,7.27,0,0,1,3.5,6.45q0,1.69-2.33,15.89a41.32,41.32,0,0,0-.61,5.66C457.87,230.7,457.9,231.13,458,231.82ZM455,216.41c-1.45-.12-2.84-.19-4.16-.19q-13.2,0-13.2,7.44a4.9,4.9,0,0,0,1.43,3.69,5.5,5.5,0,0,0,4,1.39,10.52,10.52,0,0,0,7.52-3.48A16.1,16.1,0,0,0,455,216.41Z" transform="translate(-21.49 -35.72)"/><path class="cls-2" d="M473.47,204.86l-2.83,16.59a28.24,28.24,0,0,0-.49,3.81c0,2.26,1.29,3.38,3.88,3.38.91,0,2.3-.1,4.18-.3l-.49,3.78-.87.09c-1.68.18-2.9.27-3.69.27q-7.62,0-7.62-6.74a44.85,44.85,0,0,1,.8-6.34l2.43-14.54h-4.68l.64-3.68h4.79l1.19-7.41,4.63-.42-1.27,7.83H481l-.64,3.68Z" transform="translate(-21.49 -35.72)"/><path class="cls-2" d="M504.61,231.82h-4.8c0-.63,0-1.14,0-1.54a17.68,17.68,0,0,1,.54-4.45q-4.62,6.84-11.48,6.83a9.75,9.75,0,0,1-7-2.62,8.74,8.74,0,0,1-2.73-6.58,9.39,9.39,0,0,1,3.93-7.57q3.93-3.13,14.65-3.14,1,0,4.62.18a19.27,19.27,0,0,0,.34-3.2q0-5.8-7-5.8-6.19,0-8.86,5.16l-4.47-1.9q3.63-6.94,13-6.95a15.65,15.65,0,0,1,8.7,2.28,7.27,7.27,0,0,1,3.5,6.45q0,1.69-2.33,15.89a41.32,41.32,0,0,0-.61,5.66C504.52,230.7,504.55,231.13,504.61,231.82Zm-2.94-15.41c-1.45-.12-2.84-.19-4.16-.19q-13.2,0-13.2,7.44a4.9,4.9,0,0,0,1.43,3.69,5.5,5.5,0,0,0,4,1.39,10.52,10.52,0,0,0,7.52-3.48A16.1,16.1,0,0,0,501.67,216.41Z" transform="translate(-21.49 -35.72)"/><path class="cls-2" d="M344.48,160.69l-3.55,21.15H324.2l9.62-57.61h19a59.32,59.32,0,0,1,9.77.57,17.4,17.4,0,0,1,6.33,2.74,15.51,15.51,0,0,1,5.19,5.83,16.55,16.55,0,0,1,1.92,7.83A19.61,19.61,0,0,1,370.8,155q-5.28,5.7-15.1,5.69Zm2.07-12.32h4q9.09,0,9.09-6.14,0-5.5-7.6-5.51h-3.5Z" transform="translate(-21.49 -35.72)"/><path class="cls-2" d="M399.36,170.06H383.94l-5.38,11.78H364.29L391,124.23H409L418,181.84H401Zm-1-11.9-2.29-16.67-7.6,16.67Z" transform="translate(-21.49 -35.72)"/><path class="cls-2" d="M444.51,183.31a25.74,25.74,0,0,1-17.72-6.68q-7.52-6.69-7.52-19.19,0-14.48,8.4-24.58t21.95-10.11q10.85,0,17.81,7.07t7,18.51q0,14.6-8.27,24.79A26.5,26.5,0,0,1,444.51,183.31Zm.13-13.42a7.48,7.48,0,0,0,6.79-3.77q2.32-3.78,3.67-11.08a67.1,67.1,0,0,0,1.35-9.88q0-4.42-2-6.71a7,7,0,0,0-5.43-2.28q-6.45,0-9.07,9a58.06,58.06,0,0,0-2.62,15.91Q437.29,169.89,444.64,169.89Z" transform="translate(-21.49 -35.72)"/><path class="cls-2" d="M531.36,124.23l-9.62,57.61H508.93l-11.05-22.12q-4.5-9.08-5.7-14.35.09,1.27.09,2a41.19,41.19,0,0,1-.64,6.25l-4.73,28.24h-14l9.62-57.61H498l6.33,13.34q6.59,13.85,8.57,20.47c-.08-1.16-.13-2-.13-2.58a70.94,70.94,0,0,1,1.14-9.37l3.67-21.86Z" transform="translate(-21.49 -35.72)"/><path class="cls-2" d="M580.39,137.61l-14.81,3.76a6.38,6.38,0,0,0-3.16-4.06,10.91,10.91,0,0,0-5.57-1.47c-3.8,0-5.7,1.26-5.7,3.8a3.08,3.08,0,0,0,.8,2.11c.53.59,2,1.32,4.51,2.2l9.16,3.26a22.85,22.85,0,0,1,6.67,3.74,15.06,15.06,0,0,1,4.43,5.4,14.77,14.77,0,0,1,1.35,6.26A17.93,17.93,0,0,1,571.22,177q-6.87,5.7-18.3,5.69a35.17,35.17,0,0,1-17.07-4,21.35,21.35,0,0,1-10.15-12.12l16.63-3.24q2.14,6.12,10.63,6.11c2.37,0,4.08-.42,5.13-1.28a3.73,3.73,0,0,0,1.58-2.94,2.94,2.94,0,0,0-.61-1.85,3.89,3.89,0,0,0-1.31-1.16q-.69-.36-6.56-2.52a99.89,99.89,0,0,1-11.12-4.64,14.25,14.25,0,0,1-5.32-5.08,14.53,14.53,0,0,1-2.13-7.93,17.69,17.69,0,0,1,5.8-13.35q5.8-5.46,17.75-5.46a30.2,30.2,0,0,1,15.62,3.84A18.4,18.4,0,0,1,580.39,137.61Z" transform="translate(-21.49 -35.72)"/><circle class="cls-3" cx="151.89" cy="82.33" r="7.13"/></svg>